<?xml version="1.0" encoding="utf-8"?>
<!-- Generator: Adobe Illustrator 25.4.1, SVG Export Plug-In . SVG Version: 6.00 Build 0)  -->
<svg version="1.1" id="Calque_1" xmlns="http://www.w3.org/2000/svg" xmlns:xlink="http://www.w3.org/1999/xlink" x="0px" y="0px"
	 viewBox="0 0 50 50" style="enable-background:new 0 0 50 50;" xml:space="preserve">
<g>
	<g>
		<path d="M16.03,30.18h6.64c-0.07,6.8-0.15,11.74-1.3,14.71c-1.09,2.74-3.71,4.25-7.38,4.25c-3.69,0-6.35-1.54-7.31-4.23
			C5.3,41.17,5.3,34.39,5.3,25c0-9.11,0-16.31,1.38-19.91c1.14-3.12,4.52-4.23,7.31-4.23c3.48,0,6.31,1.63,7.38,4.24
			c1.14,2.94,1.23,9.38,1.3,16.29h-6.64c0-5.21-0.01-10.89-0.15-12.95c-0.1-1.99-1.23-2.28-1.89-2.28c-0.66,0-1.79,0.29-1.89,2.27
			c-0.15,2.24-0.15,10.19-0.15,16.57s0,13.61,0.15,16.42c0.11,2.11,1.23,2.42,1.89,2.42c1.17,0,1.81-0.81,1.89-2.41
			C16.02,39.36,16.03,35.13,16.03,30.18z"/>
	</g>
	<g>
		<path d="M41.16,24.05l-0.46-0.19v-1.13l0.53-0.16c0.57-0.17,1.31-0.66,1.73-1.14c1.74-2.07,1.74-4.8,1.74-7.44
			c0-4.07,0-8.27-2.43-10.7c-1.28-1.28-3.25-1.85-6.4-1.85h-8.69v47.12h9.33c2.79,0,4.77-0.77,6.07-2.37
			c1.97-2.35,2.12-6.78,2.12-12.32c0-5.05-0.28-7.12-1.85-8.7C42.31,24.63,41.88,24.35,41.16,24.05z M37.9,41.11
			c-0.17,1.13-0.58,2.16-2.39,2.16h-1.68V26.61h1.47c1.27,0,2.09,0.51,2.42,1.51c0.24,0.8,0.33,2.35,0.33,5.75
			C38.05,37.9,38.05,39.92,37.9,41.11z M37.66,19.92c-0.36,1.27-1.21,1.9-2.58,1.9h-1.25V6.73h1.75c1.5,0,2.29,0.74,2.4,2.27
			c0.07,0.81,0.07,2.56,0.07,4.99C38.05,16.27,38,18.76,37.66,19.92z"/>
	</g>
</g>
</svg>
